<?xml version="1.0" encoding="UTF-8" standalone="no"?>
<!-- Created with Inkscape (http://www.inkscape.org/) -->

<svg
   width="1000"
   height="1000"
   viewBox="0 0 264.58328 264.58328"
   version="1.1"
   id="svg1"
   inkscape:version="1.4 (86a8ad7, 2024-10-11)"
   sodipodi:docname="OnlyPaws4 No Shade.svg"
   inkscape:export-filename="..\Documents\OnlyPaws.png"
   inkscape:export-xdpi="96"
   inkscape:export-ydpi="96"
   xmlns:inkscape="http://www.inkscape.org/namespaces/inkscape"
   xmlns:sodipodi="http://sodipodi.sourceforge.net/DTD/sodipodi-0.dtd"
   xmlns="http://www.w3.org/2000/svg"
   xmlns:svg="http://www.w3.org/2000/svg">
  <sodipodi:namedview
     id="namedview1"
     pagecolor="#ffffff"
     bordercolor="#000000"
     borderopacity="0.25"
     inkscape:showpageshadow="2"
     inkscape:pageopacity="0.0"
     inkscape:pagecheckerboard="0"
     inkscape:deskcolor="#d1d1d1"
     inkscape:document-units="mm"
     inkscape:zoom="0.67244853"
     inkscape:cx="452.82276"
     inkscape:cy="390.36445"
     inkscape:window-width="1920"
     inkscape:window-height="1017"
     inkscape:window-x="1912"
     inkscape:window-y="-8"
     inkscape:window-maximized="1"
     inkscape:current-layer="layer1" />
  <defs
     id="defs1" />
  <g
     inkscape:label="Camada 1"
     inkscape:groupmode="layer"
     id="layer1">
    <ellipse
       style="fill:#ec7b00;fill-opacity:1;stroke-width:0.253931"
       id="path1"
       cx="111.01054"
       cy="173.85645"
       rx="43.271679"
       ry="57.201874" />
    <ellipse
       style="fill:#ec7b00;fill-opacity:1;stroke-width:0.253931"
       id="path1-8"
       cx="152.65369"
       cy="174.19347"
       rx="43.271679"
       ry="57.201874" />
    <ellipse
       style="fill:#ec7b00;fill-opacity:1;stroke-width:7.60392;stroke-dasharray:none"
       id="path3"
       cx="131.77121"
       cy="141.09355"
       rx="46.383579"
       ry="39.911667" />
    <ellipse
       style="fill:#ec7b00;fill-opacity:1;stroke-width:8.2509;stroke-dasharray:none"
       id="path4"
       cx="-3.2955632"
       cy="-115.67496"
       rx="24.858473"
       ry="36.621899"
       transform="matrix(-0.95018386,0.31168997,-0.39161077,-0.92013097,0,0)" />
    <ellipse
       style="fill:#ec7b00;fill-opacity:1;stroke-width:8.2509;stroke-dasharray:none"
       id="path4-2"
       cx="245.63799"
       cy="-29.24052"
       rx="24.858473"
       ry="36.621899"
       transform="matrix(0.95018386,0.31168997,0.39161077,-0.92013097,0,0)" />
    <ellipse
       style="fill:#ec7b00;fill-opacity:1;stroke-width:8.28793;stroke-dasharray:none"
       id="path4-5"
       cx="-89.42437"
       cy="-49.848927"
       rx="26.322092"
       ry="34.896626"
       transform="matrix(-0.99819742,-0.0600159,-0.09283079,-0.9956819,0,0)" />
    <ellipse
       style="fill:#ec7b00;fill-opacity:1;stroke-width:8.23522;stroke-dasharray:none"
       id="path4-5-1"
       cx="-175.34427"
       cy="51.177914"
       rx="26.044546"
       ry="34.821251"
       transform="matrix(-0.82806477,-0.56063245,0.50402742,-0.86368765,0,0)" />
    <text
       xml:space="preserve"
       style="font-size:3.175px;text-align:start;writing-mode:lr-tb;direction:ltr;text-anchor:start;fill:#818181;fill-opacity:1;stroke:#2646a5;stroke-width:4.06101;stroke-linecap:square;stroke-linejoin:round;stroke-dasharray:none;stroke-dashoffset:0;stroke-opacity:1"
       x="77.484291"
       y="144.2571"
       id="text9"><tspan
         sodipodi:role="line"
         id="tspan9"
         style="stroke-width:4.061"></tspan></text>
    <path
       d="m 177.24844,161.07519 q 0,3.80059 -1.2764,7.06372 -1.23994,3.22474 -3.50101,5.60492 -2.80808,2.956 -6.63731,4.45321 -3.82922,1.45881 -9.66422,1.45881 h -7.22082 v 21.30634 h -7.22081 v -57.16241 h 14.73338 q 4.88681,0 8.27841,0.88296 3.3916,0.84459 6.01735,2.68729 3.09984,2.18822 4.7774,5.45136 1.71403,3.26312 1.71403,8.2538 z m -7.51256,0.19195 q 0,-2.95602 -0.98465,-5.14424 -0.98466,-2.18821 -2.99044,-3.57025 -1.75051,-1.19008 -4.01157,-1.68914 -2.2246,-0.53747 -5.65265,-0.53747 h -7.14789 v 22.84193 h 6.09029 q 4.37625,0 7.11141,-0.80618 2.73515,-0.84457 4.44919,-2.6489 1.71403,-1.84271 2.40694,-3.87736 0.72937,-2.03467 0.72937,-4.56839 z"
       id="text10"
       style="font-size:84.0884px;fill:#818181;stroke:#2646a5;stroke-width:9.21855;stroke-linecap:square;stroke-linejoin:round"
       aria-label="P" />
    <path
       d="m 124.34352,151.06621 q 2.91431,3.94843 4.45152,9.67366 1.56925,5.72523 1.56925,12.99034 0,7.26512 -1.60127,13.02983 -1.56924,5.72522 -4.4195,9.5552 -2.94634,3.98792 -6.98154,6.00161 -4.00317,2.01371 -9.15927,2.01371 -5.02798,0 -9.159253,-2.05319 -4.099256,-2.05319 -6.981541,-5.96213 -2.882286,-3.90894 -4.45153,-9.59469 -1.537219,-5.68574 -1.537219,-12.99034 0,-7.18614 1.537219,-12.87188 1.537218,-5.72523 4.483555,-9.79212 2.818235,-3.86945 6.981536,-5.92264 4.195323,-2.05319 9.127233,-2.05319 5.12407,0 9.19129,2.09267 4.09926,2.05319 6.94952,5.88316 z m -0.57646,22.664 q 0,-11.45045 -4.1633,-17.64949 -4.1633,-6.23852 -11.36902,-6.23852 -7.26976,0 -11.433073,6.23852 -4.131266,6.19904 -4.131266,17.64949 0,11.5689 4.227356,17.72845 4.227343,6.12007 11.336983,6.12007 7.10964,0 11.30497,-6.12007 4.22735,-6.15955 4.22735,-17.72845 z"
       id="text10-1"
       style="font-size:79.9148px;fill:#818181;stroke:#2646a5;stroke-width:9.21855;stroke-linecap:square"
       aria-label="O" />
    <g
       id="g10"
       transform="matrix(1.6918124,0,0,1.6918124,-89.791476,-81.219709)" />
  </g>
</svg>
